<svg width="118" height="72" viewBox="0 0 118 72" fill="none" xmlns="http://www.w3.org/2000/svg">
<path fill-rule="evenodd" clip-rule="evenodd" d="M38.5507 0H48.1082C48.6636 0 49.1963 0.220615 49.5891 0.613321C49.9819 1.00603 50.2026 1.53867 50.2027 2.0941V19.7046C51.7897 17.7732 53.399 16.475 55.0306 15.8099C56.8578 15.1098 58.8036 14.7714 60.7599 14.8135C64.9224 14.8135 68.066 15.9621 70.1908 18.2594C72.3156 20.5566 73.3779 23.6568 73.3776 27.5599V45.0558H61.7256V31.8714C61.7573 30.5091 61.6277 29.1479 61.3395 27.8161C61.1521 26.9134 60.7047 26.0853 60.0525 25.4339C59.0206 24.5323 57.6884 24.05 56.3185 24.0821C54.344 24.0821 52.8312 24.6722 51.7803 25.8523C50.7294 27.0325 50.2035 28.717 50.2027 30.9057V45.0541H38.5507V0ZM22.9819 10.6918V45.0541H10.3642V10.6918H0V0.00582886H33.3461V8.59766C33.3461 9.15305 33.1254 9.68569 32.7327 10.0784C32.34 10.4711 31.8074 10.6918 31.252 10.6918H22.9819ZM79.3937 21.3964C78.4007 23.5447 77.8951 25.8859 77.9128 28.2524C77.8796 30.787 78.3862 33.2996 79.3991 35.6233C80.3511 37.7857 81.7433 39.726 83.4868 41.3206C85.2904 42.9481 87.403 44.1959 89.6989 44.9898C92.2231 45.868 94.8801 46.3035 97.5526 46.2768C100.277 46.301 102.986 45.8659 105.565 44.9898C107.899 44.209 110.054 42.9728 111.906 41.353C113.661 39.792 115.075 37.8851 116.058 35.752C117.084 33.4998 117.6 31.0489 117.57 28.5742C117.6 26.1029 117.095 23.6544 116.091 21.3964C115.121 19.2551 113.706 17.3456 111.939 15.7958C110.085 14.187 107.944 12.9421 105.628 12.1262C103.096 11.2285 100.427 10.7818 97.7402 10.8064C95.0306 10.7779 92.3378 11.2357 89.7898 12.1581C87.4846 12.9886 85.3558 14.2444 83.5138 15.8602C81.7728 17.4012 80.3699 19.2862 79.3937 21.3964ZM90.8199 31.4388C90.4033 30.4739 90.1949 29.432 90.2083 28.3811C90.2014 27.3827 90.41 26.3946 90.8199 25.4841C91.214 24.6027 91.7587 23.7967 92.4295 23.1023C93.105 22.4086 93.9156 21.861 94.8113 21.4931C96.6875 20.7204 98.793 20.7204 100.669 21.4931C101.565 21.8615 102.375 22.4091 103.051 23.1023C103.727 23.8053 104.272 24.6228 104.661 25.5165C105.068 26.439 105.277 27.437 105.273 28.4455C105.281 29.4751 105.073 30.4951 104.661 31.4388C104.272 32.3328 103.727 33.1503 103.051 33.853C102.376 34.5465 101.565 35.0942 100.669 35.4622C98.793 36.235 96.6875 36.235 94.8113 35.4622C93.9155 35.0947 93.1047 34.5469 92.4295 33.853C91.7531 33.1508 91.208 32.3332 90.8199 31.4388ZM61.6902 49.9594H71.2474C71.5225 49.9594 71.7949 50.0136 72.049 50.1189C72.3032 50.2242 72.5341 50.3786 72.7285 50.5731C72.923 50.7677 73.0772 50.9987 73.1824 51.253C73.2876 51.5072 73.3416 51.7796 73.3414 52.0547V54.0159C76.5172 50.9692 80.0794 49.4457 84.0282 49.4454C88.9205 49.4454 92.6542 51.5053 95.2294 55.6251C97.8463 51.4629 101.58 49.3816 106.431 49.381C107.916 49.3718 109.394 49.5999 110.808 50.0569C112.136 50.4806 113.348 51.2072 114.347 52.1792C115.398 53.2465 116.2 54.5326 116.697 55.9456C117.317 57.7459 117.612 59.6425 117.566 61.5462V71.8137H105.915V66.6972C105.942 65.3152 105.823 63.9343 105.562 62.577C105.398 61.6772 105.047 60.8218 104.532 60.0661C104.139 59.5107 103.59 59.0849 102.954 58.8431C102.333 58.6257 101.68 58.5169 101.023 58.5213C97.2891 58.5213 95.4221 61.2466 95.4216 66.6972V71.8145H83.7708V66.6972C83.7936 65.3063 83.6859 63.9163 83.4491 62.5455C83.2985 61.6271 82.982 60.7437 82.5149 59.9387C82.153 59.3333 81.597 58.8682 80.9373 58.6189C80.2128 58.3699 79.4502 58.2499 78.6842 58.2643C77.9845 58.2598 77.2887 58.3686 76.6237 58.5865C75.944 58.8277 75.3507 59.2644 74.9182 59.8415C74.3569 60.6095 73.9621 61.4862 73.7591 62.4156C73.4474 63.8205 73.3069 65.258 73.3406 66.6967V71.8141H61.6902V49.9594ZM10.3792 50.3471V61.033H48.1201C48.6755 61.033 49.2082 60.8124 49.6009 60.4196C49.9936 60.0269 50.2142 59.4943 50.2142 58.9389V50.3471H10.3792Z" fill="#C5C5C5"/>
</svg>
